HIERARCHY
ROOT mixamorig:Hips
{
	OFFSET 0.000000 77.627144 7.190781
	CHANNELS 6 Xposition Yposition Zposition Xrotation Yrotation Zrotation
	JOINT mixamorig:Spine
	{
		OFFSET 0.000000 14.685707 -1.734714
		CHANNELS 3 Xrotation Yrotation Zrotation
		JOINT mixamorig:Spine1
		{
			OFFSET 0.000000 17.133331 -2.023833
			CHANNELS 3 Xrotation Yrotation Zrotation
			JOINT mixamorig:Spine2
			{
				OFFSET 0.000000 19.580948 -2.312953
				CHANNELS 3 Xrotation Yrotation Zrotation
				JOINT mixamorig:Neck
				{
					OFFSET 0.000000 22.028564 -2.602070
					CHANNELS 3 Xrotation Yrotation Zrotation
					JOINT mixamorig:Head
					{
						OFFSET 0.000000 7.772293 1.167654
						CHANNELS 3 Xrotation Yrotation Zrotation
						JOINT mixamorig:HeadTop_End
						{
							OFFSET 0.000000 26.518158 3.983897
							CHANNELS 3 Xrotation Yrotation Zrotation
							End Site
							{
								OFFSET 0.000000 26.815750 0.000000
							}
						}
					}
				}
				JOINT mixamorig:LeftShoulder
				{
					OFFSET 11.646637 18.513367 -2.583829
					CHANNELS 3 Xrotation Yrotation Zrotation
					JOINT mixamorig:LeftArm
					{
						OFFSET 23.494797 -6.787735 0.036483
						CHANNELS 3 Xrotation Yrotation Zrotation
						JOINT mixamorig:LeftForeArm
						{
							OFFSET 22.628841 -2.236465 0.895561
							CHANNELS 3 Xrotation Yrotation Zrotation
							JOINT mixamorig:LeftHand
							{
								OFFSET 32.235813 0.214081 0.341628
								CHANNELS 3 Xrotation Yrotation Zrotation
								JOINT mixamorig:LeftHandThumb1
								{
									OFFSET 4.043732 -2.301453 4.675424
									CHANNELS 3 Xrotation Yrotation Zrotation
									JOINT mixamorig:LeftHandThumb2
									{
										OFFSET 3.235001 -1.841141 3.740334
										CHANNELS 3 Xrotation Yrotation Zrotation
										JOINT mixamorig:LeftHandThumb3
										{
											OFFSET 4.136284 -1.355438 2.884997
											CHANNELS 3 Xrotation Yrotation Zrotation
											JOINT mixamorig:LeftHandThumb4
											{
												OFFSET 3.443222 -1.440781 1.895251
												CHANNELS 3 Xrotation Yrotation Zrotation
												End Site
												{
													OFFSET 3.082619 -1.455811 2.429330
												}
											}
										}
									}
								}
								JOINT mixamorig:LeftHandIndex1
								{
									OFFSET 12.534279 0.552322 5.370454
									CHANNELS 3 Xrotation Yrotation Zrotation
									JOINT mixamorig:LeftHandIndex2
									{
										OFFSET 4.462021 -0.042068 -0.222766
										CHANNELS 3 Xrotation Yrotation Zrotation
										JOINT mixamorig:LeftHandIndex3
										{
											OFFSET 4.426414 -0.140015 -0.221126
											CHANNELS 3 Xrotation Yrotation Zrotation
											JOINT mixamorig:LeftHandIndex4
											{
												OFFSET 3.584976 -0.033737 -0.180877
												CHANNELS 3 Xrotation Yrotation Zrotation
												End Site
												{
													OFFSET 3.584984 -0.033707 -0.180676
												}
											}
										}
									}
								}
								JOINT mixamorig:LeftHandMiddle1
								{
									OFFSET 12.067444 0.830978 1.411757
									CHANNELS 3 Xrotation Yrotation Zrotation
									JOINT mixamorig:LeftHandMiddle2
									{
										OFFSET 5.488625 0.110443 -0.140360
										CHANNELS 3 Xrotation Yrotation Zrotation
										JOINT mixamorig:LeftHandMiddle3
										{
											OFFSET 5.193268 -0.285706 -0.132956
											CHANNELS 3 Xrotation Yrotation Zrotation
											JOINT mixamorig:LeftHandMiddle4
											{
												OFFSET 4.443779 -0.316895 -0.113542
												CHANNELS 3 Xrotation Yrotation Zrotation
												End Site
												{
													OFFSET 4.443962 -0.316620 -0.107084
												}
											}
										}
									}
								}
								JOINT mixamorig:LeftHandRing1
								{
									OFFSET 12.202324 0.602158 -2.428782
									CHANNELS 3 Xrotation Yrotation Zrotation
									JOINT mixamorig:LeftHandRing2
									{
										OFFSET 4.681709 0.293594 -0.070412
										CHANNELS 3 Xrotation Yrotation Zrotation
										JOINT mixamorig:LeftHandRing3
										{
											OFFSET 4.517784 0.001785 -0.067170
											CHANNELS 3 Xrotation Yrotation Zrotation
											JOINT mixamorig:LeftHandRing4
											{
												OFFSET 3.536186 -0.473984 -0.050865
												CHANNELS 3 Xrotation Yrotation Zrotation
												End Site
												{
													OFFSET 3.536438 -0.473450 -0.036327
												}
											}
										}
									}
								}
								JOINT mixamorig:LeftHandPinky1
								{
									OFFSET 11.261032 -0.021225 -5.740205
									CHANNELS 3 Xrotation Yrotation Zrotation
									JOINT mixamorig:LeftHandPinky2
									{
										OFFSET 4.446136 0.226913 -0.056313
										CHANNELS 3 Xrotation Yrotation Zrotation
										JOINT mixamorig:LeftHandPinky3
										{
											OFFSET 3.536148 0.035980 -0.044635
											CHANNELS 3 Xrotation Yrotation Zrotation
											JOINT mixamorig:LeftHandPinky4
											{
												OFFSET 2.822449 0.069366 -0.035670
												CHANNELS 3 Xrotation Yrotation Zrotation
												End Site
												{
													OFFSET 2.822449 0.069397 -0.035034
												}
											}
										}
									}
								}
							}
						}
					}
				}
				JOINT mixamorig:RightShoulder
				{
					OFFSET -11.646637 18.513367 -2.620312
					CHANNELS 3 Xrotation Yrotation Zrotation
					JOINT mixamorig:RightArm
					{
						OFFSET -23.494804 -6.787735 -0.036485
						CHANNELS 3 Xrotation Yrotation Zrotation
						JOINT mixamorig:RightForeArm
						{
							OFFSET -22.628826 -2.236481 0.960591
							CHANNELS 3 Xrotation Yrotation Zrotation
							JOINT mixamorig:RightHand
							{
								OFFSET -32.235806 0.214096 0.317908
								CHANNELS 3 Xrotation Yrotation Zrotation
								JOINT mixamorig:RightHandThumb1
								{
									OFFSET -4.056908 -2.304855 4.721249
									CHANNELS 3 Xrotation Yrotation Zrotation
									JOINT mixamorig:RightHandThumb2
									{
										OFFSET -3.245529 -1.843887 3.777003
										CHANNELS 3 Xrotation Yrotation Zrotation
										JOINT mixamorig:RightHandThumb3
										{
											OFFSET -4.153908 -1.359879 2.907515
											CHANNELS 3 Xrotation Yrotation Zrotation
											JOINT mixamorig:RightHandThumb4
											{
												OFFSET -3.491310 -1.375549 1.529044
												CHANNELS 3 Xrotation Yrotation Zrotation
												End Site
												{
													OFFSET -3.035126 -1.400162 2.290608
												}
											}
										}
									}
								}
								JOINT mixamorig:RightHandIndex1
								{
									OFFSET -12.331047 0.757294 5.317495
									CHANNELS 3 Xrotation Yrotation Zrotation
									JOINT mixamorig:RightHandIndex2
									{
										OFFSET -4.758568 -0.224289 -0.035605
										CHANNELS 3 Xrotation Yrotation Zrotation
										JOINT mixamorig:RightHandIndex3
										{
											OFFSET -4.415932 -0.181503 -0.033052
											CHANNELS 3 Xrotation Yrotation Zrotation
											JOINT mixamorig:RightHandIndex4
											{
												OFFSET -3.678474 0.414856 -0.027373
												CHANNELS 3 Xrotation Yrotation Zrotation
												End Site
												{
													OFFSET -3.678375 0.414001 -0.046045
												}
											}
										}
									}
								}
								JOINT mixamorig:RightHandMiddle1
								{
									OFFSET -12.051239 0.663742 1.548264
									CHANNELS 3 Xrotation Yrotation Zrotation
									JOINT mixamorig:RightHandMiddle2
									{
										OFFSET -5.374817 0.301971 -0.166537
										CHANNELS 3 Xrotation Yrotation Zrotation
										JOINT mixamorig:RightHandMiddle3
										{
											OFFSET -5.310471 -0.301758 -0.164593
											CHANNELS 3 Xrotation Yrotation Zrotation
											JOINT mixamorig:RightHandMiddle4
											{
												OFFSET -4.485832 -0.342514 -0.139207
												CHANNELS 3 Xrotation Yrotation Zrotation
												End Site
												{
													OFFSET -4.486198 -0.342010 -0.127963
												}
											}
										}
									}
								}
								JOINT mixamorig:RightHandRing1
								{
									OFFSET -12.195183 0.742325 -2.381488
									CHANNELS 3 Xrotation Yrotation Zrotation
									JOINT mixamorig:RightHandRing2
									{
										OFFSET -4.583191 0.034424 -0.012763
										CHANNELS 3 Xrotation Yrotation Zrotation
										JOINT mixamorig:RightHandRing3
										{
											OFFSET -4.612793 0.026199 -0.012632
											CHANNELS 3 Xrotation Yrotation Zrotation
											JOINT mixamorig:RightHandRing4
											{
												OFFSET -3.314957 -0.541855 -0.006643
												CHANNELS 3 Xrotation Yrotation Zrotation
												End Site
												{
													OFFSET -3.315063 -0.541092 0.010116
												}
											}
										}
									}
								}
								JOINT mixamorig:RightHandPinky1
								{
									OFFSET -11.332825 -0.054398 -5.574547
									CHANNELS 3 Xrotation Yrotation Zrotation
									JOINT mixamorig:RightHandPinky2
									{
										OFFSET -4.462639 0.300003 -0.206312
										CHANNELS 3 Xrotation Yrotation Zrotation
										JOINT mixamorig:RightHandPinky3
										{
											OFFSET -3.493774 0.049591 -0.161451
											CHANNELS 3 Xrotation Yrotation Zrotation
											JOINT mixamorig:RightHandPinky4
											{
												OFFSET -2.793701 0.056946 -0.129098
												CHANNELS 3 Xrotation Yrotation Zrotation
												End Site
												{
													OFFSET -2.793793 0.057053 -0.126857
												}
											}
										}
									}
								}
							}
						}
					}
				}
			}
		}
	}
	JOINT mixamorig:LeftUpLeg
	{
		OFFSET 13.580879 -8.149223 -1.796077
		CHANNELS 3 Xrotation Yrotation Zrotation
		JOINT mixamorig:LeftLeg
		{
			OFFSET 3.676140 -35.802425 -2.676071
			CHANNELS 3 Xrotation Yrotation Zrotation
			JOINT mixamorig:LeftFoot
			{
				OFFSET -0.369089 -26.709160 -2.057140
				CHANNELS 3 Xrotation Yrotation Zrotation
				JOINT mixamorig:LeftToeBase
				{
					OFFSET -1.192477 -6.581660 13.403662
					CHANNELS 3 Xrotation Yrotation Zrotation
					JOINT mixamorig:LeftToe_End
					{
						OFFSET -0.351336 -0.163913 5.937977
						CHANNELS 3 Xrotation Yrotation Zrotation
						End Site
						{
							OFFSET -0.351338 -0.163913 5.937977
						}
					}
				}
			}
		}
	}
	JOINT mixamorig:RightUpLeg
	{
		OFFSET -13.580879 -8.149223 -2.255285
		CHANNELS 3 Xrotation Yrotation Zrotation
		JOINT mixamorig:RightLeg
		{
			OFFSET -3.676140 -35.802425 -2.316821
			CHANNELS 3 Xrotation Yrotation Zrotation
			JOINT mixamorig:RightFoot
			{
				OFFSET 0.369059 -26.709040 -2.090143
				CHANNELS 3 Xrotation Yrotation Zrotation
				JOINT mixamorig:RightToeBase
				{
					OFFSET 1.192393 -6.582436 13.372205
					CHANNELS 3 Xrotation Yrotation Zrotation
					JOINT mixamorig:RightToe_End
					{
						OFFSET 0.351307 -0.164255 5.913618
						CHANNELS 3 Xrotation Yrotation Zrotation
						End Site
						{
							OFFSET 0.351309 -0.164255 5.913618
						}
					}
				}
			}
		}
	}
}
MOTION
Frames: 5
Frame Time: 0.016667
-19.059288 82.378990 32.442631 5.821204 -9.085565 -754.785900 13.996811 -1.926958 11.785489 6.314678 -0.214431 0.679746 6.311207 -0.336333 0.669040 -0.422104 3.283868 0.929823 -23.587223 7.156356 24.765952 -0.000000 -0.000000 -0.000000 0.456170 -3.143432 36.857613 -116.370577 -44.017216 -71.536130 -1.169601 -13.156745 -6.154832 7.733584 -6.245760 12.864981 8.225333 15.925426 11.592109 3.539004 4.739362 -6.097854 -4.844276 -4.083323 5.619810 -0.000001 0.000001 -0.000005 2.924899 -13.917584 21.559653 -0.027085 0.140624 -0.615382 -0.386469 0.568489 -8.766646 -0.000003 0.000001 -0.000002 0.308240 -6.887970 14.669672 -0.020914 0.410614 -1.275288 -0.115841 0.668984 -7.967921 -0.000001 0.000001 0.000002 -0.966155 1.025190 6.957133 -0.087713 0.852323 -8.098904 0.029121 0.790778 -3.043076 0.000002 0.000003 0.000001 -1.570521 11.699032 4.045011 0.137290 -2.799392 -15.254357 -0.079160 0.857084 -12.455133 -0.000000 -0.000002 -0.000001 -0.097888 0.535171 -17.202241 43.152121 -21.994876 42.100668 179.344034 171.810007 -173.932734 23.588217 -6.934473 6.768161 -4.843262 -15.366300 -19.338622 4.220507 -1.859830 6.555436 -6.083595 10.687329 -4.186519 -0.000003 0.000004 0.000002 3.726570 12.993198 -41.541364 -0.002608 0.000532 0.344919 0.003302 0.513046 1.255110 0.000000 0.000002 0.000001 2.704536 11.740200 -29.004907 0.206496 0.091404 -6.467594 -0.000123 0.347934 -6.900938 0.000002 0.000004 -0.000001 0.014742 7.491651 -24.859122 0.001325 0.076244 -0.109554 -0.218900 0.171300 -12.705027 -0.000001 0.000002 -0.000001 0.173299 7.059103 -16.895040 0.139703 -0.004657 -3.025795 0.020799 0.045062 -0.429995 0.000002 0.000004 0.000001 -36.660047 17.820894 35.117274 24.930964 10.639411 5.568520 -14.435798 27.847733 0.525484 -4.113229 -0.000014 -0.000002 0.000000 0.000002 -0.000001 -40.022641 11.125616 -39.976660 31.582638 -9.343909 -0.492272 7.512051 -2.573855 10.610900 -6.883946 0.000001 -0.000008 -0.000000 0.000001 0.000001 
-19.609413 81.844070 32.627281 5.457286 -9.595951 -754.635090 14.012181 -1.948721 11.737738 6.424422 -0.212581 0.694227 6.421048 -0.336380 0.683292 -0.422002 3.276432 0.927710 -23.772265 7.124554 24.652719 0.000001 -0.000000 0.000000 0.350451 -2.901827 37.337635 -117.598714 -44.648052 -71.002262 -0.916936 -10.701803 -6.106091 6.273231 -6.909321 12.743867 8.225333 15.925431 11.592101 3.539007 4.739353 -6.097855 -4.844269 -4.083324 5.619811 -0.000001 -0.000001 -0.000003 3.227627 -13.976688 23.832203 -0.003444 0.102561 -0.113131 -0.367247 0.527060 -8.261734 -0.000005 0.000000 -0.000000 0.331199 -7.047294 16.808271 -0.008610 0.365568 -0.668958 -0.111671 0.637765 -7.556530 0.000002 -0.000000 -0.000002 -1.236626 0.813272 9.075601 -0.084659 0.808119 -7.494075 0.029524 0.768352 -2.728034 0.000001 -0.000001 -0.000000 -2.264587 11.448148 6.282531 0.134329 -2.836409 -14.751585 -0.079516 0.838480 -12.203654 -0.000000 -0.000001 -0.000001 -0.061574 0.537668 -15.868836 45.907330 -25.953274 40.036667 179.075812 169.163268 -173.892190 25.684669 -8.591615 7.768453 -4.843264 -15.366303 -19.338617 4.220510 -1.859835 6.555434 -6.083593 10.687336 -4.186517 -0.000004 0.000003 0.000002 3.442663 12.974918 -38.799088 -0.002612 0.000531 0.344927 0.040145 0.679591 -1.189052 -0.000002 -0.000002 0.000001 2.490869 11.678150 -26.372597 0.205360 0.075267 -6.466560 -0.049474 0.441131 -8.347690 0.000000 -0.000002 -0.000001 0.001176 7.313196 -22.265433 0.000874 0.051341 -0.108111 -0.304334 0.200257 -13.042042 0.000002 0.000002 0.000002 0.179562 6.881965 -14.208848 0.128267 -0.017472 -2.796782 -0.001564 0.017610 0.040393 0.000001 -0.000000 -0.000002 -35.870217 15.647740 34.692413 28.997978 11.104749 5.189408 -16.896937 30.091235 0.066805 -3.872719 0.000024 -0.000003 0.000000 -0.000002 -0.000001 -38.649626 12.205192 -38.557026 27.379845 -9.594258 -1.240321 10.034266 -1.091415 11.266188 -6.228161 0.000001 -0.000018 0.000001 -0.000000 0.000001 
-19.999496 81.336494 32.770046 5.048131 -9.841360 -754.141185 14.265813 -1.920910 11.637270 6.440845 -0.211081 0.602927 6.437108 -0.336464 0.592564 -0.421051 3.214932 0.910268 -23.785616 6.835516 24.515084 0.000001 -0.000000 0.000000 0.234884 -2.637188 37.513550 -117.884393 -44.219942 -70.839123 -0.837868 -9.925177 -6.093025 6.209508 -7.406553 12.838471 8.225330 15.925424 11.592104 3.539004 4.739360 -6.097854 -4.844272 -4.083322 5.619809 -0.000001 0.000002 -0.000005 3.440530 -14.011074 25.420870 0.012533 0.077266 0.222098 -0.341705 0.473388 -7.604552 -0.000001 0.000000 -0.000005 0.350830 -7.158087 18.303310 -0.000058 0.335295 -0.260298 -0.106457 0.600842 -7.069749 -0.000001 -0.000002 0.000001 -1.420912 0.659284 10.555448 -0.082342 0.778359 -7.086429 0.030042 0.746834 -2.425689 -0.000001 0.000002 0.000001 -2.743068 11.257134 7.843099 0.132525 -2.861108 -14.416002 -0.079698 0.826058 -12.035817 -0.000003 -0.000002 -0.000001 -0.106548 0.196625 -14.831349 48.995829 -28.804448 38.995462 178.769014 166.190660 -173.831019 27.313855 -9.833926 8.900778 -4.843263 -15.366303 -19.338629 4.220508 -1.859832 6.555435 -6.083594 10.687335 -4.186520 -0.000002 0.000002 0.000002 3.128300 12.939063 -35.748865 -0.002594 0.000550 0.344914 0.040139 0.679605 -1.189103 -0.000000 -0.000002 0.000002 2.256965 11.597916 -23.445283 0.202229 0.028723 -6.463683 -0.113867 0.427731 -8.071928 0.000000 -0.000003 -0.000001 -0.004338 7.114141 -19.381249 -0.000705 -0.023319 0.210601 -0.358231 0.161850 -12.456779 -0.000001 0.000003 0.000001 0.196379 6.685500 -11.221672 0.068904 -0.085784 -1.591367 -0.029919 -0.017802 0.643118 0.000002 -0.000004 0.000003 -34.987951 13.880068 34.019075 32.258051 11.452840 4.784393 -18.689479 31.352348 -0.315059 -3.390946 0.000027 0.000006 0.000001 -0.000002 -0.000001 -38.103727 12.857918 -37.090830 26.064033 -9.190612 -0.816678 11.510575 -0.029041 11.566308 -5.213713 0.000008 -0.000011 0.000001 0.000002 -0.000002 
-20.242386 80.874611 32.870815 4.658924 -9.778646 -753.317191 14.651676 -1.862321 11.446869 6.382676 -0.208973 0.454613 6.378460 -0.334838 0.445281 -0.419352 3.102137 0.878264 -23.573305 6.342071 24.300831 0.000000 -0.000001 -0.000000 0.142265 -2.419176 37.352717 -117.334768 -42.863204 -71.193336 -0.912149 -10.654951 -6.105264 7.401765 -7.588922 13.131784 8.225328 15.925431 11.592101 3.539005 4.739362 -6.097854 -4.844276 -4.083319 5.619809 0.000001 0.000004 -0.000001 3.491964 -14.018478 25.803681 0.030925 0.048565 0.604288 -0.312824 0.414433 -6.878694 0.000001 -0.000000 -0.000000 0.355975 -7.184680 18.663550 0.008238 0.306687 0.126187 -0.100093 0.558674 -6.513034 -0.000001 0.000003 0.000000 -1.464705 0.621483 10.911859 -0.079946 0.750179 -6.700253 0.030767 0.721549 -2.070420 0.000001 0.000000 -0.000000 -2.857494 11.209219 8.218645 0.130664 -2.889309 -14.033384 -0.079888 0.811898 -11.844475 0.000000 0.000004 0.000004 -0.239132 -0.540968 -14.153237 52.038395 -30.326904 38.848740 178.468349 163.347758 -173.756106 28.442427 -10.482229 10.280886 -4.843258 -15.366303 -19.338625 4.220512 -1.859833 6.555435 -6.083598 10.687327 -4.186518 -0.000004 0.000002 0.000005 2.777583 12.879304 -32.317679 -0.002613 0.000551 0.344937 0.040156 0.679593 -1.189111 0.000000 0.000003 -0.000001 1.999234 11.493773 -20.152932 0.197258 -0.015451 -6.386953 -0.180453 0.413141 -7.784881 0.000001 0.000002 -0.000000 0.001516 6.890198 -16.137457 -0.002618 -0.074976 1.004751 -0.413037 0.120968 -11.851100 -0.000001 0.000004 -0.000001 0.227572 6.465795 -7.861812 0.009311 -0.157411 -0.350102 -0.058739 -0.054589 1.263795 -0.000000 0.000000 0.000001 -34.264853 12.708001 33.111278 34.766694 11.402851 4.552792 -19.941782 31.330750 -0.579477 -2.773489 -0.000001 -0.000010 -0.000000 0.000000 -0.000001 -38.605192 12.642470 -35.357659 27.539024 -7.521952 0.374523 12.087701 0.127012 11.733269 -4.229141 0.000003 -0.000024 0.000001 0.000002 -0.000001 
-20.358047 80.456589 32.935688 4.347624 -9.403983 -752.214580 15.009699 -1.795922 11.114313 6.293131 -0.204727 0.319916 6.288605 -0.328770 0.311668 -0.417101 2.946427 0.834101 -23.101715 5.732217 23.938524 0.000001 -0.000001 -0.000000 0.109146 -2.327292 36.795458 -116.098189 -40.960149 -72.205461 -1.093376 -12.420574 -6.139002 9.434912 -7.461321 13.544637 8.225328 15.925430 11.592105 3.539004 4.739358 -6.097853 -4.844275 -4.083323 5.619809 0.000000 -0.000001 0.000002 3.348785 -13.996962 24.737116 0.061073 0.002365 1.222866 -0.284401 0.358325 -6.183340 -0.000000 -0.000000 0.000002 0.342026 -7.110443 17.659823 0.019961 0.267454 0.657982 -0.092745 0.513140 -5.910762 0.000001 -0.000005 0.000002 -1.342091 0.726142 9.918593 -0.076334 0.711356 -6.167955 0.031956 0.689087 -1.614209 -0.000007 -0.000002 -0.000003 -2.537824 11.340905 7.171787 0.128037 -2.934957 -13.414147 -0.080066 0.789000 -11.534789 0.000003 0.000002 0.000003 -0.466468 -1.691035 -13.927893 54.596089 -30.290011 39.372001 178.223637 161.092662 -173.684635 29.217306 -10.509312 11.858739 -4.843262 -15.366303 -19.338624 4.220509 -1.859830 6.555436 -6.083600 10.687329 -4.186520 -0.000004 0.000002 0.000004 2.384237 12.786620 -28.418027 -0.002606 0.000546 0.344935 0.040136 0.679591 -1.189098 -0.000001 -0.000003 0.000004 1.714309 11.357979 -16.411654 0.183446 -0.038652 -5.978770 -0.245547 0.398100 -7.501191 -0.000001 -0.000000 -0.000001 0.023688 6.636426 -12.450935 -0.003816 -0.126013 1.789057 -0.464930 0.079872 -11.259279 0.000002 0.000001 -0.000003 0.278656 6.218713 -4.043109 -0.046849 -0.227886 0.850246 -0.086196 -0.090470 1.864028 -0.000004 -0.000003 0.000001 -33.567743 12.210382 31.929222 36.539975 11.389504 4.316844 -20.967316 31.308225 -0.667298 -2.432919 -0.000008 -0.000004 -0.000000 -0.000001 -0.000000 -39.832284 11.132854 -33.155214 30.703514 -5.473860 1.343389 12.268131 0.253380 12.052820 -3.656446 0.000007 -0.000032 0.000002 -0.000000 0.000001 
